<mxfile host="app.diagrams.net" modified="2023-06-30T19:43:40.076Z" agent="Mozilla/5.0 (Macintosh; Intel Mac OS X 10_15_7) AppleWebKit/537.36 (KHTML, like Gecko) Chrome/111.0.0.0 Safari/537.36" version="21.5.2" etag="9gJC8xoeTXaIZViZIli3" type="github">
  <diagram name="Page-1" id="B0zMYpsAUcd_ousad4Xg">
    <mxGraphModel>
      <root>
        <mxCell id="0" />
        <mxCell id="1" parent="0" />
      </root>
    </mxGraphModel>
  </diagram>
</mxfile>
